<?xml version="1.0" encoding="UTF-8" standalone="no"?>
<!DOCTYPE svg PUBLIC "-//W3C//DTD SVG 1.1//EN" "http://www.w3.org/Graphics/SVG/1.1/DTD/svg11.dtd">
<svg width="100%" height="100%" viewBox="0 0 320 96" version="1.1" xmlns="http://www.w3.org/2000/svg" xmlns:xlink="http://www.w3.org/1999/xlink" xml:space="preserve" xmlns:serif="http://www.serif.com/" style="fill-rule:evenodd;clip-rule:evenodd;">
    <g transform="matrix(1,0,0,1,-4,2)">
        <g transform="matrix(48,0,0,48,279.242,63.5019)">
        </g>
        <text x="91.418px" y="63.502px" style="font-family:'MarkerFelt-Thin', 'Marker Felt';font-size:48px;">M<tspan x="137.066px 157.706px 179.546px 203.066px " y="63.502px 63.502px 63.502px 63.502px ">ETSI</tspan>-P<tspan x="255.242px " y="63.502px ">H</tspan></text>
    </g>
    <path d="M319.5,16.5L319.5,79.5C319.5,88.331 312.331,95.5 303.5,95.5L16.5,95.5C7.669,95.5 0.5,88.331 0.5,79.5L0.5,16.5C0.5,7.669 7.669,0.5 16.5,0.5L303.5,0.5C312.331,0.5 319.5,7.669 319.5,16.5Z" style="fill:none;stroke:rgb(230,236,242);stroke-width:1px;"/>
    <circle cx="48" cy="48" r="28" style="fill:rgb(24,188,156);"/>
    <path d="M30,50.5C34,43.5 39.5,40 47.5,40C56,40 61.5,44.5 66,53.5" style="fill:none;fill-rule:nonzero;stroke:white;stroke-width:5px;stroke-linecap:round;"/>
    <path d="M50.5,26.5L50.5,69.5C50.5,70.88 49.38,72 48,72C46.62,72 45.5,70.88 45.5,69.5L45.5,26.5C45.5,25.12 46.62,24 48,24C49.38,24 50.5,25.12 50.5,26.5Z" style="fill:white;"/>
</svg>
